<svg viewBox="0 0 720 1180" width="720" height="1180" xmlns="http://www.w3.org/2000/svg" role="img" font-family="'Pretendard Variable',Pretendard,'Apple SD Gothic Neo',-apple-system,sans-serif">
<title>오늘만큼 사용자 플로우 v2.0</title>
<desc>S0 진입(카카오/로그인없이) → S1 코치 선택 → S2 마음 날씨 → 루틴 추천 → S3 홈 → 완료/쉬운버전/쉬어가기 → AI 코치 메시지 → 진행도 갱신 → 전체 완료 시 완료 축하 카드. 하단 탭 홈/기록/설정.</desc>
<defs>
<marker id="ar" markerWidth="9" markerHeight="9" refX="7" refY="4.5" orient="auto"><path d="M0 0L8 4.5L0 9z" fill="#9AA39C"/></marker>
</defs>
<rect width="720" height="1180" fill="#FAF6F0"/>

<text x="36" y="40" font-size="22" font-weight="800" fill="#24523F">오늘만큼 — 사용자 플로우 v2.0</text>
<text x="36" y="64" font-size="13" font-weight="500" fill="#7c8a80">상태 체크 → 루틴 추천 → 완료/쉬운 버전 재도전 → 격려의 일일 루프 · 2026-06-19</text>

<g font-size="12" font-weight="600">
<rect x="36" y="84" width="16" height="13" rx="3" fill="#fff" stroke="#24523F" stroke-width="2"/><text x="58" y="95" fill="#5c6960">화면</text>
<rect x="110" y="84" width="16" height="13" rx="3" fill="#EAF3EE" stroke="#B6D6C2"/><text x="132" y="95" fill="#5c6960">시스템 처리</text>
<rect x="216" y="84" width="16" height="13" rx="3" fill="#FBF1CE" stroke="#E6CD7E"/><text x="238" y="95" fill="#5c6960">사용자 선택</text>
<rect x="322" y="84" width="16" height="13" rx="3" fill="#24523F"/><text x="344" y="95" fill="#5c6960">AI 메시지 (Solar · 실패 시 예비)</text>
</g>

<g font-size="14.5" font-weight="700" text-anchor="middle">
<rect x="240" y="116" width="240" height="50" rx="13" fill="#fff" stroke="#24523F" stroke-width="2"/>
<text x="360" y="138" fill="#24523F">S0 · 진입 화면</text>
<text x="360" y="156" font-size="11.5" font-weight="500" fill="#7c8a80">카카오로 시작 · 로그인 없이 시작</text>
<line x1="360" y1="166" x2="360" y2="192" stroke="#9AA39C" stroke-width="1.6" marker-end="url(#ar)"/>
<text x="494" y="183" font-size="10.5" font-weight="500" fill="#9AA39C" text-anchor="start">첫 사용자만</text>
<rect x="240" y="194" width="240" height="50" rx="13" fill="#fff" stroke="#24523F" stroke-width="2"/>
<text x="360" y="216" fill="#24523F">S1 · 코치 선택</text>
<text x="360" y="234" font-size="11.5" font-weight="500" fill="#7c8a80">유쾌한 햇살 · 진중한 숲 · 다정한 물</text>
<line x1="360" y1="244" x2="360" y2="270" stroke="#9AA39C" stroke-width="1.6" marker-end="url(#ar)"/>
<rect x="240" y="272" width="240" height="50" rx="13" fill="#fff" stroke="#24523F" stroke-width="2"/>
<text x="360" y="294" fill="#24523F">S2 · 마음 날씨</text>
<text x="360" y="312" font-size="11.5" font-weight="500" fill="#7c8a80">맑음 · 구름 · 비 (좋아요/보통/힘들어요)</text>
<line x1="360" y1="322" x2="360" y2="348" stroke="#9AA39C" stroke-width="1.6" marker-end="url(#ar)"/>
<rect x="232" y="350" width="256" height="50" rx="13" fill="#EAF3EE" stroke="#B6D6C2"/>
<text x="360" y="372" fill="#24523F">상태 기반 루틴 추천</text>
<text x="360" y="390" font-size="11.5" font-weight="500" fill="#5c6960">좋아요 4 · 보통 3 · 힘들어요 2 · 영역 분산</text>
<line x1="360" y1="400" x2="360" y2="426" stroke="#9AA39C" stroke-width="1.6" marker-end="url(#ar)"/>
<rect x="252" y="428" width="216" height="46" rx="13" fill="#fff" stroke="#24523F" stroke-width="2"/>
<text x="360" y="456" fill="#24523F">S3 · 오늘의 루틴 (홈)</text>
<line x1="360" y1="474" x2="360" y2="500" stroke="#9AA39C" stroke-width="1.6" marker-end="url(#ar)"/>

<rect x="40" y="502" width="190" height="56" rx="13" fill="#FBF1CE" stroke="#E6CD7E"/>
<text x="135" y="525" font-size="13.5" fill="#7a6420">완료</text>
<text x="135" y="544" font-size="10.5" font-weight="500" fill="#9a8638">루틴 수행</text>
<rect x="265" y="502" width="190" height="56" rx="13" fill="#FBF1CE" stroke="#E6CD7E"/>
<text x="360" y="525" font-size="13.5" fill="#7a6420">지금은 어려워요</text>
<text x="360" y="544" font-size="10.5" font-weight="500" fill="#9a8638">→ 쉬운 버전으로 전환</text>
<rect x="490" y="502" width="190" height="56" rx="13" fill="#FBF1CE" stroke="#E6CD7E"/>
<text x="585" y="525" font-size="13.5" fill="#7a6420">오늘은 쉬어가기</text>
<text x="585" y="544" font-size="10.5" font-weight="500" fill="#9a8638">죄책감 완화</text>
<line x1="135" y1="558" x2="135" y2="592" stroke="#9AA39C" stroke-width="1.6" marker-end="url(#ar)"/>
<line x1="360" y1="558" x2="360" y2="592" stroke="#9AA39C" stroke-width="1.6" marker-end="url(#ar)"/>
<line x1="585" y1="558" x2="585" y2="592" stroke="#9AA39C" stroke-width="1.6" marker-end="url(#ar)"/>

<rect x="40" y="594" width="640" height="50" rx="13" fill="#24523F"/>
<text x="360" y="616" fill="#fff">AI 코치 격려·수용 메시지</text>
<text x="360" y="634" font-size="11.5" font-weight="500" fill="#cfe0d4">성격 × 상황(완료/쉬운완료/쉬어가기) 반영 · Solar API, 실패 시 예비 메시지</text>
<line x1="360" y1="644" x2="360" y2="670" stroke="#9AA39C" stroke-width="1.6" marker-end="url(#ar)"/>

<rect x="232" y="672" width="256" height="50" rx="13" fill="#EAF3EE" stroke="#B6D6C2"/>
<text x="360" y="694" fill="#24523F">진행도 갱신 · 기록 저장</text>
<text x="360" y="712" font-size="11.5" font-weight="500" fill="#5c6960">오늘 N / M개 완료 · localStorage</text>
<line x1="360" y1="722" x2="360" y2="748" stroke="#9AA39C" stroke-width="1.6" marker-end="url(#ar)"/>

<rect x="270" y="750" width="180" height="48" rx="13" fill="#FBF1CE" stroke="#E6CD7E"/>
<text x="360" y="779" fill="#7a6420">오늘 루틴 전체 완료?</text>
<path d="M270 774 H150 V451 H252" fill="none" stroke="#9AA39C" stroke-width="1.6" marker-end="url(#ar)"/>
<text x="156" y="620" font-size="10.5" font-weight="600" fill="#9AA39C" text-anchor="start">아니오 · 남은 루틴</text>
<line x1="360" y1="798" x2="360" y2="826" stroke="#9AA39C" stroke-width="1.6" marker-end="url(#ar)"/>
<text x="370" y="818" font-size="10.5" font-weight="600" fill="#9AA39C" text-anchor="start">예</text>

<rect x="232" y="828" width="256" height="56" rx="13" fill="#FBE9DC" stroke="#EFA58F"/>
<text x="360" y="851" fill="#24523F">완료 축하 카드 + AI 마무리</text>
<text x="360" y="869" font-size="11.5" font-weight="500" fill="#9b5b45">오늘 하루도 잘 해냈어요 · 풍경 배너</text>
</g>

<g font-size="12">
<rect x="40" y="918" width="640" height="60" rx="14" fill="#fff" stroke="#ECE6DC"/>
<text x="60" y="942" font-size="13" font-weight="700" fill="#24523F">하단 탭 (코치 선택 후 상시)</text>
<text x="60" y="963" font-weight="500" fill="#5c6960">홈 · 기록(최근 14일 그래프·타임라인) · 설정(코치 다시 고르기 · 마음 날씨 다시 고르기 · 카카오 로그인)</text>
<text x="40" y="1014" font-size="13" font-weight="700" fill="#24523F">메모</text>
<text x="40" y="1036" font-weight="500" fill="#7c8a80">· 카카오 로그인 = 구현 완료(미로그인도 모든 기능 동작) · 루틴 카드 카톡 보내기 = 8월(2차)</text>
<text x="40" y="1056" font-weight="500" fill="#7c8a80">· 루틴 추천은 규칙 기반(개수·난이도·영역 분산·어제 제외), AI는 코치 메시지 생성에만 사용</text>
<text x="40" y="1076" font-weight="500" fill="#7c8a80">· 모든 기록 localStorage 저장 · 로컬(기기 시간대) 자정 기준 하루 리셋</text>
</g>
</svg>
